<?xml version="1.0" encoding="UTF-8" standalone="no"?>
<!-- Created with Inkscape (http://www.inkscape.org/) -->

<svg
   xmlns:dc="http://purl.org/dc/elements/1.1/"
   xmlns:cc="http://creativecommons.org/ns#"
   xmlns:rdf="http://www.w3.org/1999/02/22-rdf-syntax-ns#"
   xmlns:svg="http://www.w3.org/2000/svg"
   xmlns="http://www.w3.org/2000/svg"
   version="1.1"
   width="19"
   height="16"
   id="svg16971">
  <defs
     id="defs16973" />
  <metadata
     id="metadata16976">
    <rdf:RDF>
      <cc:Work
         rdf:about="">
        <dc:format>image/svg+xml</dc:format>
        <dc:type
           rdf:resource="http://purl.org/dc/dcmitype/StillImage" />
        <dc:title></dc:title>
      </cc:Work>
    </rdf:RDF>
  </metadata>
  <g
     transform="translate(0,-1036.3622)"
     id="layer1">
    <rect
       width="15.999998"
       height="15.012817"
       rx="0"
       x="1036.3494"
       y="-17.025635"
       transform="matrix(0,1,-1,0,0,0)"
       id="rect16174"
       style="fill:#ffffff;fill-opacity:0.25098039;fill-rule:nonzero;stroke:none" />
    <rect
       width="15.999998"
       height="4"
       rx="0"
       x="1036.3494"
       y="-6.0128174"
       transform="matrix(0,1,-1,0,0,0)"
       id="rect16176"
       style="fill:#000000;fill-opacity:0.25098039;fill-rule:nonzero;stroke:none" />
    <rect
       width="15.999998"
       height="4.0128174"
       rx="0"
       x="1036.3494"
       y="-17.025635"
       transform="matrix(0,1,-1,0,0,0)"
       id="rect16178"
       style="fill:#000000;fill-opacity:0.25098039;fill-rule:nonzero;stroke:none" />
    <rect
       width="15.999998"
       height="1"
       rx="0"
       x="1036.3494"
       y="-10.012817"
       transform="matrix(0,1,-1,0,0,0)"
       id="rect16180"
       style="fill:#ffffff;fill-opacity:0.50196078;fill-rule:nonzero;stroke:none" />
    <rect
       width="15.999998"
       height="1"
       rx="0"
       x="1036.3494"
       y="-11.012817"
       transform="matrix(0,1,-1,0,0,0)"
       id="rect16182"
       style="fill:#000000;fill-opacity:0.25098039;fill-rule:nonzero;stroke:none" />
    <rect
       width="15.999998"
       height="1.9999995"
       x="1036.3494"
       y="-2.0128174"
       transform="matrix(0,1,-1,0,0,0)"
       id="rect16184"
       style="fill:#000000;fill-opacity:0.1254902;fill-rule:nonzero;stroke:none" />
    <rect
       width="15.999998"
       height="1.9999995"
       x="1036.3494"
       y="-19.012817"
       transform="matrix(0,1,-1,0,0,0)"
       id="rect16186"
       style="fill:#000000;fill-opacity:0.1254902;fill-rule:nonzero;stroke:none" />
    <rect
       width="15.999998"
       height="1"
       rx="0"
       x="1036.3494"
       y="-9.0128174"
       transform="matrix(0,1,-1,0,0,0)"
       id="rect16188"
       style="fill:#000000;fill-opacity:0.25098039;fill-rule:nonzero;stroke:none" />
  </g>
</svg>
