<?xml version="1.0" encoding="UTF-8" standalone="no"?>
<!-- Created with Inkscape (http://www.inkscape.org/) -->

<svg
   xmlns:dc="http://purl.org/dc/elements/1.1/"
   xmlns:cc="http://creativecommons.org/ns#"
   xmlns:rdf="http://www.w3.org/1999/02/22-rdf-syntax-ns#"
   xmlns:svg="http://www.w3.org/2000/svg"
   xmlns="http://www.w3.org/2000/svg"
   version="1.1"
   width="12"
   height="12"
   id="svg16971">
  <defs
     id="defs16973" />
  <metadata
     id="metadata16976">
    <rdf:RDF>
      <cc:Work
         rdf:about="">
        <dc:format>image/svg+xml</dc:format>
        <dc:type
           rdf:resource="http://purl.org/dc/dcmitype/StillImage" />
        <dc:title></dc:title>
      </cc:Work>
    </rdf:RDF>
  </metadata>
  <g
     transform="translate(0,-1040.3622)"
     id="layer1">
    <path
       d="m 2,1040.3622 c -1.10457,0 -2,0.8954 -2,2 l 0,8 c 0,1.1046 0.89543,2 2,2 l 8,0 c 1.10457,0 2,-0.8954 2,-2 l 0,-8 c 0,-1.1046 -0.89543,-2 -2,-2 z"
       id="path16156"
       style="fill:#000000;fill-opacity:0.25098039;fill-rule:nonzero;stroke:none" />
    <path
       d="m 2,1040.3622 c -1.10457,0 -2,0.8954 -2,2 l 0,8 c 0,1.1046 0.89543,2 2,2 l 8,0 c 1.10457,0 2,-0.8954 2,-2 l 0,-8 c 0,-1.1046 -0.89543,-2 -2,-2 z m 0,2 8,0 0,8 -8,0 z"
       id="path16158"
       style="fill:#000000;fill-opacity:0.25098039;fill-rule:nonzero;stroke:none" />
  </g>
</svg>
