<?xml version="1.0" encoding="UTF-8" standalone="no"?>
<!-- Created with Inkscape (http://www.inkscape.org/) -->

<svg
   xmlns:dc="http://purl.org/dc/elements/1.1/"
   xmlns:cc="http://creativecommons.org/ns#"
   xmlns:rdf="http://www.w3.org/1999/02/22-rdf-syntax-ns#"
   xmlns:svg="http://www.w3.org/2000/svg"
   xmlns="http://www.w3.org/2000/svg"
   version="1.1"
   width="22"
   height="22"
   id="svg16767">
  <defs
     id="defs16769" />
  <metadata
     id="metadata16772">
    <rdf:RDF>
      <cc:Work
         rdf:about="">
        <dc:format>image/svg+xml</dc:format>
        <dc:type
           rdf:resource="http://purl.org/dc/dcmitype/StillImage" />
        <dc:title></dc:title>
      </cc:Work>
    </rdf:RDF>
  </metadata>
  <g
     transform="translate(0,-1030.3622)"
     id="layer1">
    <path
       d="m 4,1030.3622 14,0 c 2.216,0 4,1.784 4,4 l 0,14 c 0,2.216 -1.784,4 -4,4 l -14,0 c -2.216,0 -4,-1.784 -4,-4 l 0,-14 c 0,-2.216 1.784,-4 4,-4 z"
       id="path16971"
       style="fill:#000000;fill-opacity:0.25098039;stroke:none" />
    <path
       d="m 11,1038.3622 c 1.108,0 2,0.892 2,2 l 0,2 c 0,1.108 -0.892,2 -2,2 -1.108,0 -2,-0.892 -2,-2 l 0,-2 c 0,-1.108 0.892,-2 2,-2 z"
       id="path16973"
       style="fill:#000000;fill-opacity:0.50196078;fill-rule:nonzero;stroke:none" />
    <path
       d="m 4,1030.3622 c -2.216,0 -4,1.784 -4,4 l 0,14 c 0,2.216 1.784,4 4,4 l 14,0 c 2.216,0 4,-1.784 4,-4 l 0,-14 c 0,-2.216 -1.784,-4 -4,-4 z m 0,2 14,0 c 1.108,0 2,0.892 2,2 l 0,14 c 0,1.108 -0.892,2 -2,2 l -14,0 c -1.108,0 -2,-0.892 -2,-2 l 0,-14 c 0,-1.108 0.892,-2 2,-2 z"
       id="path16975"
       style="fill:#000000;fill-opacity:0.25098039;stroke:none" />
  </g>
</svg>
