<?xml version="1.0" encoding="UTF-8" standalone="no"?>
<!-- Created with Inkscape (http://www.inkscape.org/) -->

<svg
   xmlns="http://www.w3.org/2000/svg"
   width="16"
   height="15">
  <script src="svg.js">
   // <![CDATA[
     symbol_color = String( symbol_color );
     opacity = Number( opacity );
     shadow = Number( shadow );
   // ]]>
  </script>
  <g
     transform="translate(0,-0.3622)"
     id="layer1">
    <path
       d="m 11,1.3622 c -1.10457,0 -2,0.8954 -2,2 0,1.1045 0.89543,2 2,2 1.10457,0 2,-0.8955 2,-2 0,-1.1046 -0.89543,-2 -2,-2 z m -11,1 0,2 8,0 0,-2 -8,0 z m 14,0 0,2 2,0 0,-2 -2,0 z m -9,4 c -1.10457,0 -2,0.8954 -2,2 0,1.1045 0.89543,2 2,2 1.10457,0 2,-0.8955 2,-2 0,-1.1046 -0.89543,-2 -2,-2 z m -5,1 0,2 2,0 0,-2 -2,0 z m 8,0 0,2 8,0 0,-2 -8,0 z m 3,4 c -1.10457,0 -2,0.8954 -2,2 0,1.1045 0.89543,2 2,2 1.10457,0 2,-0.8955 2,-2 0,-1.1046 -0.89543,-2 -2,-2 z m -11,1 0,2 8,0 0,-2 -8,0 z m 14,0 0,2 2,0 0,-2 -2,0 z"
       id="rect10077"
       style="fill:#ffffff;fill-opacity:0.50196078;prop( 'fill', 'symbol_color' );prop( 'fill-opacity', 'opacity' );" />
    <path
       d="m 11,0.3622 c -1.10457,0 -2,0.8954 -2,2 0,0.1726 0.0214,0.3402 0.0625,0.5 0.22196,-0.8627 1.00552,-1.5 1.9375,-1.5 0.93198,0 1.71554,0.6373 1.9375,1.5 C 12.9786,2.7024 13,2.5348 13,2.3622 c 0,-1.1046 -0.89543,-2 -2,-2 z m -11,1 0,1 8,0 0,-1 -8,0 z m 14,0 0,1 2,0 0,-1 -2,0 z m -9,4 c -1.10457,0 -2,0.8954 -2,2 0,0.1726 0.0214,0.3402 0.0625,0.5 0.22196,-0.8627 1.00552,-1.5 1.9375,-1.5 0.93198,0 1.71554,0.6373 1.9375,1.5 C 6.9786,7.7024 7,7.5348 7,7.3622 c 0,-1.1046 -0.89543,-2 -2,-2 z m -5,1 0,1 2,0 0,-1 -2,0 z m 8,0 0,1 8,0 0,-1 -8,0 z m 3,4 c -1.10457,0 -2,0.8954 -2,2 0,0.1726 0.0214,0.3402 0.0625,0.5 0.22196,-0.8627 1.00552,-1.5 1.9375,-1.5 0.93198,0 1.71554,0.6373 1.9375,1.5 0.0411,-0.1598 0.0625,-0.3274 0.0625,-0.5 0,-1.1046 -0.89543,-2 -2,-2 z m -11,1 0,1 8,0 0,-1 -8,0 z m 14,0 0,1 2,0 0,-1 -2,0 z"
       id="path10096"
       style="fill:#000000;fill-opacity:0.50196078;prop( 'fill-opacity', 'shadow' );" />
  </g>
</svg>
