<?xml version="1.0" encoding="UTF-8" standalone="no"?>
<!-- Created with Inkscape (http://www.inkscape.org/) -->

<svg
   xmlns:dc="http://purl.org/dc/elements/1.1/"
   xmlns:cc="http://creativecommons.org/ns#"
   xmlns:rdf="http://www.w3.org/1999/02/22-rdf-syntax-ns#"
   xmlns:svg="http://www.w3.org/2000/svg"
   xmlns="http://www.w3.org/2000/svg"
   version="1.1"
   width="22"
   height="11"
   id="svg16166">
  <defs
     id="defs16168" />
  <metadata
     id="metadata16171">
    <rdf:RDF>
      <cc:Work
         rdf:about="">
        <dc:format>image/svg+xml</dc:format>
        <dc:type
           rdf:resource="http://purl.org/dc/dcmitype/StillImage" />
        <dc:title></dc:title>
      </cc:Work>
    </rdf:RDF>
  </metadata>
  <path
     d="M 4.5,1 C 1.9787,1.25605 0,3.41117 0,6 0,8.76142 2.2386,11 5,11 7.0457,11 8.7882,9.75952 9.5625,8 L 7.2188,8 C 6.6696,8.60891 5.8845,9 5,9 3.3431,9 2,7.65685 2,6 2,4.34315 3.3431,3 5,3 5.8845,3 6.6696,3.39109 7.2188,4 L 9.5625,4 C 8.7882,2.24048 7.0457,1 5,1 4.8274,1 4.6681,0.9829 4.5,1 z M 15,1 15,5 5,5 5,7 15,7 15,11 22,6 15,1 z"
     id="path9003"
     style="fill:#ffffff;fill-opacity:0.50196078;fill-rule:nonzero;stroke:none" />
  <path
     d="M 4.5,0 C 1.9787,0.25605 0,2.41117 0,5 0,5.20445 0.01,5.39573 0.031,5.59375 0.2294,3.19322 2.1148,1.24221 4.4998,1 4.6679,0.9829 4.8272,1 4.9998,1 6.6296,1 8.0599,1.79009 8.9686,3 L 9.5623,3 C 8.788,1.24048 7.0455,0 4.9998,0 4.8272,0 4.6679,-0.0171 4.4998,0 z M 15,0 15,1 21.3125,5.5 22,5 15,0 z M 5,4 5,5 15,5 15,4 9.5625,4 7.2188,4 5,4 z M 2.0625,5.5 c -0.029,0.16658 -0.062,0.32524 -0.062,0.5 0,1.65685 1.3431,3 3,3 C 5.885,9 6.6701,8.60891 7.2193,8 l 1.75,0 C 9.2011,7.69125 9.4056,7.35771 9.563,7 L 7.2193,7 C 6.6701,7.60891 5.885,8 5.0005,8 3.5184,8 2.3062,6.91264 2.063,5.5 z"
     id="path9016"
     style="fill:#000000;fill-opacity:0.50196078;fill-rule:nonzero;stroke:none" />
</svg>
