<?xml version="1.0" encoding="UTF-8" standalone="no"?>
<!-- Created with Inkscape (http://www.inkscape.org/) -->

<svg
   xmlns:dc="http://purl.org/dc/elements/1.1/"
   xmlns:cc="http://creativecommons.org/ns#"
   xmlns:rdf="http://www.w3.org/1999/02/22-rdf-syntax-ns#"
   xmlns:svg="http://www.w3.org/2000/svg"
   xmlns="http://www.w3.org/2000/svg"
   version="1.1"
   width="16"
   height="14"
   id="svg16166">
  <defs
     id="defs16168" />
  <metadata
     id="metadata16171">
    <rdf:RDF>
      <cc:Work
         rdf:about="">
        <dc:format>image/svg+xml</dc:format>
        <dc:type
           rdf:resource="http://purl.org/dc/dcmitype/StillImage" />
        <dc:title></dc:title>
      </cc:Work>
    </rdf:RDF>
  </metadata>
  <path
     d="m 8,1.0000174 c -3.86599,0 -7,3.134 -7,7 l -1,0 0,5.9999996 3,0 1,0 0,-5.9999996 -1,0 c 0,-2.5889 1.97872,-4.744 4.5,-5 0.16809,-0.017 0.32741,0 0.5,0 2.76142,0 5,2.2386 5,5 l -1,0 0,5.9999996 1,0 3,0 0,-5.9999996 -1,0 c 0,-3.866 -3.13401,-7 -7,-7 z"
     id="rect9152"
     style="fill:#ffffff;fill-opacity:0.50196078;fill-rule:nonzero;stroke:none" />
  <path
     d="M 8,1.7382813e-5 C 4.13401,1.7382813e-5 1,3.1340174 1,7.0000174 l -1,0 0,1 1,0 c 0,-3.866 3.13401,-7 7,-7 3.86599,0 7,3.134 7,7 l 1,0 0,-1 -1,0 C 15,3.1340174 11.86599,1.7382813e-5 8,1.7382813e-5 z M 3.125,7.0000174 c -0.0677,0.328 -0.125,0.6528 -0.125,1 l 1,0 0,-1 -0.875,0 z m 8.875,0 0,1 1,0 c 0,-0.3452 -0.0272,-0.6745 -0.0937,-1 l -0.90625,0 z"
     id="path9172"
     style="fill:#000000;fill-opacity:0.50196078;fill-rule:nonzero;stroke:none" />
</svg>
