<?xml version="1.0" encoding="UTF-8" standalone="no"?>
<!-- Created with Inkscape (http://www.inkscape.org/) -->

<svg
   xmlns:dc="http://purl.org/dc/elements/1.1/"
   xmlns:cc="http://creativecommons.org/ns#"
   xmlns:rdf="http://www.w3.org/1999/02/22-rdf-syntax-ns#"
   xmlns:svg="http://www.w3.org/2000/svg"
   xmlns="http://www.w3.org/2000/svg"
   version="1.1"
   width="28"
   height="25"
   id="svg16034">
  <defs
     id="defs16036" />
  <metadata
     id="metadata16039">
    <rdf:RDF>
      <cc:Work
         rdf:about="">
        <dc:format>image/svg+xml</dc:format>
        <dc:type
           rdf:resource="http://purl.org/dc/dcmitype/StillImage" />
        <dc:title></dc:title>
      </cc:Work>
    </rdf:RDF>
  </metadata>
  <g
     transform="translate(0,-1027.3622)"
     id="layer1">
    <g
       id="text9297"
       style="font-size:11px;font-style:normal;font-variant:normal;font-weight:bold;font-stretch:normal;line-height:125%;letter-spacing:0px;word-spacing:0px;fill:#ffffff;fill-opacity:0.50196078;stroke:none;font-family:PT Mono;-inkscape-font-specification:PT Mono Bold">
      <path
         d="m 4.9094453,1044.5363 c 0.3079989,-0.059 0.6453319,-0.1027 1.012,-0.132 0.3739978,-0.037 0.7443308,-0.055 1.111,-0.055 0.38133,0 0.762663,0.033 1.144,0.099 0.3886622,0.059 0.7369952,0.1833 1.045,0.374 0.3079946,0.1833 0.5573277,0.4437 0.748,0.781 0.1979937,0.33 0.2969937,0.7627 0.2969997,1.298 -6e-6,0.4693 -0.08434,0.8727 -0.253,1.21 -0.1686721,0.33 -0.3923385,0.605 -0.6709997,0.825 -0.2786716,0.2127 -0.5976713,0.3703 -0.957,0.473 -0.3520039,0.095 -0.7186702,0.143 -1.1,0.143 -0.03667,0 -0.095336,0 -0.176,0 -0.08067,0 -0.1650028,0 -0.253,0 -0.088003,-0.01 -0.1760026,-0.015 -0.264,-0.022 -0.080669,-0.01 -0.1393357,-0.015 -0.176,-0.022 l 0,2.651 -1.507,0 0,-7.623 m 2.244,1.111 c -0.1466696,0 -0.2860027,0.01 -0.418,0.022 -0.1320025,0.01 -0.2383357,0.018 -0.319,0.033 l 0,2.497 c 0.029331,0.01 0.073331,0.015 0.132,0.022 0.058664,0.01 0.1209974,0.015 0.187,0.022 0.065997,0 0.1283306,0 0.187,0 0.065997,0 0.1136637,0 0.143,0 0.1979969,0 0.39233,-0.018 0.583,-0.055 0.1979963,-0.037 0.3739961,-0.1027 0.528,-0.198 0.1539958,-0.1027 0.2749957,-0.242 0.363,-0.418 0.095329,-0.176 0.1429954,-0.407 0.143,-0.693 -4.6e-6,-0.242 -0.044004,-0.44 -0.132,-0.594 -0.088004,-0.1613 -0.2053376,-0.2897 -0.352,-0.385 -0.1393373,-0.095 -0.3006704,-0.1613 -0.484,-0.198 -0.1833367,-0.037 -0.3703366,-0.055 -0.561,-0.055"
         id="path16109"
         style="text-align:center;text-anchor:middle;fill:#ffffff;font-family:PT Mono;-inkscape-font-specification:PT Mono Bold" />
      <path
         d="m 11.626148,1044.4593 4.884,0 0,1.342 -3.377,0 0,1.903 3.135,0 0,1.342 -3.135,0 0,3.113 -1.507,0 0,-7.7"
         id="path16111"
         style="text-align:center;text-anchor:middle;fill:#ffffff;font-family:PT Mono;-inkscape-font-specification:PT Mono Bold" />
      <path
         d="m 21.851852,1049.0243 1.364,0 0,3.135 -5.06,0 0,-7.7 1.507,0 0,6.358 2.189,0 0,-1.793"
         id="path16113"
         style="text-align:center;text-anchor:middle;fill:#ffffff;font-family:PT Mono;-inkscape-font-specification:PT Mono Bold" />
    </g>
    <g
       id="text9301"
       style="font-size:11px;font-style:normal;font-variant:normal;font-weight:bold;font-stretch:normal;line-height:125%;letter-spacing:0px;word-spacing:0px;fill:#ffffff;fill-opacity:0.50196078;stroke:none;font-family:PT Mono;-inkscape-font-specification:PT Mono Bold">
      <path
         d="m 1.4905937,1028.6114 c 0.1686659,-0.029 0.3483324,-0.055 0.5390001,-0.077 0.1979985,-0.029 0.3923317,-0.051 0.583,-0.066 0.1979979,-0.015 0.3886644,-0.026 0.572,-0.033 0.1833307,-0.01 0.3519972,-0.011 0.506,-0.011 0.35933,0 0.7113297,0.037 1.0559999,0.11 0.3519958,0.066 0.6636621,0.1833 0.935,0.352 0.2786616,0.1686 0.4986613,0.396 0.6600001,0.682 0.1686609,0.286 0.2529942,0.6416 0.253,1.067 -5.8e-6,0.3153 -0.033006,0.5903 -0.099,0.825 -0.058672,0.2273 -0.1430055,0.429 -0.253,0.605 -0.1100053,0.176 -0.2456718,0.33 -0.407,0.462 -0.1540048,0.1246 -0.3226713,0.2383 -0.5059999,0.341 l 1.8589999,3.366 -1.738,0 -1.5509999,-3.014 -0.902,0 0,3.014 -1.5070001,0 0,-7.623 m 2.3100001,1.155 c -0.1540029,0 -0.3080027,0 -0.462,0.011 -0.1466691,0.01 -0.2603357,0.022 -0.341,0.044 l 0,2.233 0.594,0 c 0.4179967,0 0.7589964,-0.095 1.023,-0.286 0.2639959,-0.1907 0.3959957,-0.506 0.3959999,-0.946 -4.2e-6,-0.33 -0.1026707,-0.5867 -0.308,-0.77 -0.205337,-0.1907 -0.5060033,-0.286 -0.9019999,-0.286"
         id="path16100"
         style="text-align:center;text-anchor:middle;fill:#ffffff;font-family:PT Mono;-inkscape-font-specification:PT Mono Bold" />
      <path
         d="m 7.8002969,1032.3844 c -4e-7,-0.6234 0.058666,-1.1844 0.176,-1.683 0.1173326,-0.4987 0.2969991,-0.9167 0.539,-1.254 0.2419986,-0.3447 0.542665,-0.6087 0.902,-0.792 0.3666643,-0.1834 0.7956641,-0.275 1.2870001,-0.275 0.527996,0 0.975329,0.099 1.342,0.297 0.366662,0.198 0.663661,0.473 0.891,0.825 0.234661,0.352 0.403327,0.7736 0.506,1.265 0.109994,0.4913 0.164994,1.0303 0.165,1.617 -6e-6,1.254 -0.242006,2.2366 -0.726,2.948 -0.476672,0.704 -1.202671,1.056 -2.178,1.056 -0.528003,0 -0.9790024,-0.099 -1.3530001,-0.297 -0.3666683,-0.198 -0.6673346,-0.473 -0.902,-0.825 -0.2273342,-0.352 -0.392334,-0.7737 -0.495,-1.265 -0.1026671,-0.4914 -0.1540004,-1.0304 -0.154,-1.617 m 1.584,0 c -2e-6,0.374 0.014665,0.7223 0.044,1.045 0.036665,0.3226 0.098998,0.605 0.187,0.847 0.095331,0.2346 0.2273309,0.4216 0.3960001,0.561 0.175997,0.1393 0.406997,0.209 0.693,0.209 0.256663,0 0.469329,-0.051 0.638,-0.154 0.168662,-0.11 0.304329,-0.275 0.407,-0.495 0.102662,-0.22 0.172329,-0.495 0.209,-0.825 0.044,-0.3374 0.066,-0.7334 0.066,-1.188 -5e-6,-0.3594 -0.01467,-0.7004 -0.044,-1.023 -0.02201,-0.3227 -0.08067,-0.605 -0.176,-0.847 -0.088,-0.242 -0.220004,-0.4327 -0.396,-0.572 -0.176004,-0.1467 -0.41067,-0.22 -0.704,-0.22 -0.513336,0 -0.8616692,0.2236 -1.0450001,0.671 -0.1833354,0.4473 -0.275002,1.111 -0.275,1.991"
         id="path16102"
         style="text-align:center;text-anchor:middle;fill:#ffffff;font-family:PT Mono;-inkscape-font-specification:PT Mono Bold" />
      <path
         d="m 14.396,1032.3844 c 0,-0.6234 0.05867,-1.1844 0.176,-1.683 0.117333,-0.4987 0.296999,-0.9167 0.539,-1.254 0.241999,-0.3447 0.542665,-0.6087 0.902,-0.792 0.366664,-0.1834 0.795664,-0.275 1.287,-0.275 0.527996,0 0.975329,0.099 1.342,0.297 0.366662,0.198 0.663661,0.473 0.891,0.825 0.234661,0.352 0.403327,0.7736 0.506,1.265 0.109994,0.4913 0.164994,1.0303 0.165,1.617 -6e-6,1.254 -0.242006,2.2366 -0.726,2.948 -0.476672,0.704 -1.202671,1.056 -2.178,1.056 -0.528003,0 -0.979002,-0.099 -1.353,-0.297 -0.366668,-0.198 -0.667335,-0.473 -0.902,-0.825 -0.227334,-0.352 -0.392334,-0.7737 -0.495,-1.265 -0.102667,-0.4914 -0.154,-1.0304 -0.154,-1.617 m 1.584,0 c -2e-6,0.374 0.01466,0.7223 0.044,1.045 0.03666,0.3226 0.099,0.605 0.187,0.847 0.09533,0.2346 0.227331,0.4216 0.396,0.561 0.175997,0.1393 0.406997,0.209 0.693,0.209 0.256663,0 0.46933,-0.051 0.638,-0.154 0.168663,-0.11 0.304329,-0.275 0.407,-0.495 0.102662,-0.22 0.172329,-0.495 0.209,-0.825 0.044,-0.3374 0.066,-0.7334 0.066,-1.188 -5e-6,-0.3594 -0.01467,-0.7004 -0.044,-1.023 -0.02201,-0.3227 -0.08067,-0.605 -0.176,-0.847 -0.088,-0.242 -0.220004,-0.4327 -0.396,-0.572 -0.176004,-0.1467 -0.41067,-0.22 -0.704,-0.22 -0.513336,0 -0.861669,0.2236 -1.045,0.671 -0.183335,0.4473 -0.275002,1.111 -0.275,1.991"
         id="path16104"
         style="text-align:center;text-anchor:middle;fill:#ffffff;font-family:PT Mono;-inkscape-font-specification:PT Mono Bold" />
      <path
         d="m 25.248703,1032.1314 0.055,-1.199 -0.066,0 -1.232,2.013 -0.264,0 -1.287,-2.013 -0.055,0 0.066,1.078 0,4.224 -1.43,0 0,-7.7 1.529,0 1.32,2.134 0.044,0 1.309,-2.134 1.518,0 0,7.7 -1.507,0 0,-4.103"
         id="path16106"
         style="text-align:center;text-anchor:middle;fill:#ffffff;font-family:PT Mono;-inkscape-font-specification:PT Mono Bold" />
    </g>
    <path
       d="m 0,1039.3494 28,0 0,2 -28,0 z"
       id="rect9305"
       style="fill:#ffffff;fill-opacity:0.50196078;fill-rule:nonzero;stroke:none" />
    <path
       d="m 7.03125,1043.3622 c -0.36667,0 -0.751,-0.01 -1.125,0.031 -0.36667,0.029 -0.692,0.098 -1,0.1562 l 0,1 c 0.308,-0.059 0.63333,-0.1269 1,-0.1562 0.374,-0.037 0.75833,-0.031 1.125,-0.031 0.38133,0 0.77491,0.028 1.15625,0.094 0.38866,0.059 0.72325,0.1843 1.03125,0.375 0.30799,0.1833 0.55933,0.4439 0.75,0.7812 0.13764,0.2294 0.20804,0.5151 0.25,0.8438 0.0311,-0.1772 0.0625,-0.3611 0.0625,-0.5625 -10e-6,-0.5354 -0.11451,-0.9513 -0.3125,-1.2813 -0.19067,-0.3373 -0.44201,-0.5979 -0.75,-0.7812 -0.308,-0.1907 -0.64259,-0.3164 -1.03125,-0.375 -0.38134,-0.066 -0.77492,-0.094 -1.15625,-0.094 z m 4.59375,0.094 0,1 4.875,0 0,-1 -4.875,0 z m 6.53125,0 0,1 1.5,0 0,-1 -1.5,0 z m -9.5625,2.9375 c -0.0198,0.061 -0.0346,0.1359 -0.0625,0.1875 -0.088,0.176 -0.18975,0.3036 -0.34375,0.4062 -0.154,0.095 -0.33325,0.1509 -0.53125,0.1875 -0.19067,0.037 -0.39575,0.062 -0.59375,0.062 l -0.125,0 -0.1875,0 c -0.066,-0.01 -0.12884,-0.024 -0.1875,-0.031 -0.0587,-0.01 -0.12692,0.01 -0.15625,0 l 0,1 c 0.0293,0.01 0.0976,-0.01 0.15625,0 0.0587,0.01 0.1215,0.024 0.1875,0.031 l 0.1875,0 0.125,0 c 0.198,0 0.40308,-0.026 0.59375,-0.062 0.198,-0.037 0.37725,-0.092 0.53125,-0.1875 0.154,-0.1026 0.25575,-0.2302 0.34375,-0.4062 0.0953,-0.176 0.15625,-0.4015 0.15625,-0.6875 0,-0.1973 -0.0353,-0.3612 -0.0937,-0.5 z m 4.53125,0.3125 0,1 3.15625,0 0,-1 -3.15625,0 z m 8.71875,1.3125 0,1 1.375,0 0,-1 -1.375,0 z m -2.1875,1.8125 0,1 2.1875,0 0,-1 -2.1875,0 z"
       id="text9307"
       style="font-size:11px;font-style:normal;font-variant:normal;font-weight:bold;font-stretch:normal;line-height:125%;letter-spacing:0px;word-spacing:0px;fill:#000000;fill-opacity:0.50196078;stroke:none;font-family:PT Mono;-inkscape-font-specification:PT Mono Bold" />
    <path
       d="m 0,1038.3622 0,1 28,0 0,-1 -28,0 z"
       id="rect9316"
       style="fill:#000000;fill-opacity:0.50196078;fill-rule:nonzero;stroke:none" />
    <path
       d="m 10.71875,1027.37 c -0.49134,0 -0.94584,0.098 -1.3125,0.2813 -0.35933,0.1833 -0.66425,0.4366 -0.90625,0.7812 -0.242,0.3374 -0.41392,0.7826 -0.53125,1.2813 -0.11733,0.4986 -0.15625,1.0329 -0.15625,1.6562 0,0.174 0.0222,0.3344 0.0312,0.5 0.024,-0.4196 0.0412,-0.8002 0.125,-1.1562 0.11733,-0.4987 0.28925,-0.9439 0.53125,-1.2813 0.242,-0.3446 0.54692,-0.5979 0.90625,-0.7812 0.36666,-0.1834 0.82116,-0.2813 1.3125,-0.2813 0.528,0 0.94583,0.1145 1.3125,0.3125 0.36666,0.198 0.67891,0.4605 0.90625,0.8125 0.23466,0.352 0.39733,0.7899 0.5,1.2813 0.0794,0.3547 0.10292,0.7206 0.125,1.125 0.0104,-0.1723 0.0312,-0.3474 0.0312,-0.5313 -10e-6,-0.5866 -0.0463,-1.1024 -0.15625,-1.5937 -0.10267,-0.4914 -0.26534,-0.9293 -0.5,-1.2813 -0.22734,-0.352 -0.53959,-0.6145 -0.90625,-0.8125 -0.36667,-0.198 -0.7845,-0.3125 -1.3125,-0.3125 z m 6.59375,0 c -0.49134,0 -0.94584,0.098 -1.3125,0.2813 -0.35933,0.1833 -0.633,0.4366 -0.875,0.7812 -0.242,0.3374 -0.44517,0.7826 -0.5625,1.2813 -0.11733,0.4986 -0.15625,1.0329 -0.15625,1.6562 0,0.174 0.0222,0.3344 0.0312,0.5 0.024,-0.4196 0.0412,-0.8002 0.125,-1.1562 0.11733,-0.4987 0.3205,-0.9439 0.5625,-1.2813 0.242,-0.3446 0.51567,-0.5979 0.875,-0.7812 0.36666,-0.1834 0.82116,-0.2813 1.3125,-0.2813 0.528,0 0.97708,0.1145 1.34375,0.3125 0.36666,0.198 0.64766,0.4605 0.875,0.8125 0.23466,0.352 0.39733,0.7899 0.5,1.2813 0.0795,0.3549 0.13419,0.7203 0.15625,1.125 0.0104,-0.172 0.0312,-0.3476 0.0312,-0.5313 -10e-6,-0.5866 -0.0775,-1.1024 -0.1875,-1.5937 -0.10267,-0.4914 -0.26534,-0.9293 -0.5,-1.2813 -0.22734,-0.352 -0.50834,-0.6145 -0.875,-0.8125 -0.36667,-0.198 -0.81575,-0.3125 -1.34375,-0.3125 z m -14.125,0.062 c -0.18334,0.01 -0.3645,0.017 -0.5625,0.031 -0.19067,0.015 -0.39575,0.033 -0.59375,0.062 -0.19067,0.022 -0.36258,0.064 -0.53125,0.094 l 0,1 c 0.16867,-0.029 0.34058,-0.072 0.53125,-0.094 0.198,-0.029 0.40308,-0.048 0.59375,-0.062 0.198,-0.015 0.37916,-0.024 0.5625,-0.031 0.18333,-0.01 0.346,0 0.5,0 0.35933,0 0.71783,0.02 1.0625,0.094 0.352,0.066 0.66616,0.2064 0.9375,0.375 0.27866,0.1687 0.49491,0.3703 0.65625,0.6563 0.10284,0.1744 0.14736,0.3988 0.1875,0.625 0.0261,-0.1663 0.0625,-0.3644 0.0625,-0.5625 -10e-6,-0.4254 -0.0813,-0.7765 -0.25,-1.0625 -0.16134,-0.286 -0.37759,-0.4876 -0.65625,-0.6563 -0.27134,-0.1686 -0.5855,-0.309 -0.9375,-0.375 -0.34467,-0.073 -0.70317,-0.094 -1.0625,-0.094 -0.154,0 -0.31667,-0.01 -0.5,0 z m 17.84375,0.094 0,1 1.53125,0 1.3125,2.1563 0.0625,0 1.3125,-2.1563 1.5,0 0,-1 -1.5,0 -1.3125,2.1563 -0.0625,0 -1.3125,-2.1563 -1.53125,0 z m -16.09375,2.8438 c -0.0657,0.1726 -0.1717,0.3045 -0.3125,0.4062 -0.264,0.1907 -0.61325,0.2813 -1.03125,0.2813 l -0.59375,0 0,1 0.59375,0 c 0.418,0 0.76725,-0.091 1.03125,-0.2813 0.264,-0.1906 0.375,-0.5287 0.375,-0.9687 0,-0.165 -0.0112,-0.3092 -0.0625,-0.4375 z m 17.46875,0.5625 0.0625,1.0625 0,-1 0,-0.062 -0.0625,0 z m 2.84375,0 0,0.1875 0,1 0.0625,-1.1875 -0.0625,0 z m -15.84375,0.9062 c -0.01,0.1794 -0.0312,0.3291 -0.0312,0.5313 0,0.374 0.0332,0.7398 0.0625,1.0625 0.0367,0.3226 0.0995,0.6017 0.1875,0.8437 0.0953,0.2347 0.20633,0.4232 0.375,0.5625 0.176,0.1393 0.43275,0.2188 0.71875,0.2188 0.25666,0 0.45633,-0.054 0.625,-0.1563 0.16866,-0.11 0.30358,-0.28 0.40625,-0.5 0.10266,-0.22 0.18208,-0.5137 0.21875,-0.8437 0.044,-0.3374 0.0625,-0.7329 0.0625,-1.1875 0,-0.1685 -0.0248,-0.3084 -0.0312,-0.4688 -0.0109,0.2222 -0.007,0.4699 -0.0312,0.6563 -0.0367,0.33 -0.11609,0.6237 -0.21875,0.8437 -0.10267,0.22 -0.23759,0.39 -0.40625,0.5 -0.16867,0.1027 -0.36834,0.1563 -0.625,0.1563 -0.286,0 -0.54275,-0.079 -0.71875,-0.2188 -0.16867,-0.1393 -0.27967,-0.3278 -0.375,-0.5625 -0.088,-0.242 -0.15084,-0.5211 -0.1875,-0.8437 -0.0164,-0.1803 -0.024,-0.3975 -0.0312,-0.5938 z m 9.1875,0.062 c -0.0109,0.2222 -0.007,0.4699 -0.0312,0.6563 -0.0367,0.33 -0.11609,0.6237 -0.21875,0.8437 -0.10267,0.22 -0.23759,0.39 -0.40625,0.5 -0.16867,0.1027 -0.36834,0.1563 -0.625,0.1563 -0.286,0 -0.54275,-0.079 -0.71875,-0.2188 -0.16867,-0.1393 -0.27967,-0.3278 -0.375,-0.5625 -0.088,-0.242 -0.15084,-0.5211 -0.1875,-0.8437 -0.013,-0.1425 -0.024,-0.3164 -0.0312,-0.4688 -0.006,0.1412 -0.0312,0.2517 -0.0312,0.4063 0,0.374 0.0332,0.7398 0.0625,1.0625 0.0367,0.3226 0.0995,0.6017 0.1875,0.8437 0.0953,0.2347 0.20633,0.4232 0.375,0.5625 0.176,0.1393 0.43275,0.2188 0.71875,0.2188 0.25666,0 0.45633,-0.054 0.625,-0.1563 0.16866,-0.11 0.30358,-0.28 0.40625,-0.5 0.10266,-0.22 0.18208,-0.5137 0.21875,-0.8437 0.044,-0.3374 0.0625,-0.7329 0.0625,-1.1875 0,-0.1685 -0.0248,-0.3084 -0.0312,-0.4688 z M 5.75,1032.5888 c -0.12984,0.098 -0.25696,0.1976 -0.40625,0.2812 l 1.3125,2.375 0.53125,0 -1.4375,-2.6562 z"
       id="text9321"
       style="font-size:11px;font-style:normal;font-variant:normal;font-weight:bold;font-stretch:normal;line-height:125%;letter-spacing:0px;word-spacing:0px;fill:#000000;fill-opacity:0.50196078;stroke:none;font-family:PT Mono;-inkscape-font-specification:PT Mono Bold" />
  </g>
</svg>
